<svg width="24" height="24" viewBox="0 0 24 24" fill="none" xmlns="http://www.w3.org/2000/svg">
<g opacity="0.32">
<path d="M12.5845 7.76946C12.8511 7.23353 13.001 6.62933 13.001 5.99011C13.001 5.35089 12.8511 4.74669 12.5845 4.21076C13.1308 3.47036 14.0093 2.99011 15.0001 2.99011C16.6569 2.99011 18.0001 4.33326 18.0001 5.99011C18.0001 7.64697 16.6569 8.99011 15.0001 8.99011C14.0093 8.99011 13.1308 8.50986 12.5845 7.76946Z" fill="#1877F2"/>
<path d="M14.0598 19.7559C14.6564 19.9067 15.312 19.9901 16.0001 19.9901C18.7615 19.9901 21.0001 18.647 21.0001 16.9901C21.0001 15.3333 18.7615 13.9901 16.0001 13.9901C15.3111 13.9901 14.6547 14.0737 14.0574 14.225C15.2614 14.9434 16.001 15.9179 16.001 16.9911C16.001 18.0636 15.2623 19.0376 14.0598 19.7559Z" fill="#1877F2"/>
</g>
<path d="M9.00098 9.99011C11.2101 9.99011 13.001 8.19925 13.001 5.99011C13.001 3.78097 11.2101 1.99011 9.00098 1.99011C6.79184 1.99011 5.00098 3.78097 5.00098 5.99011C5.00098 8.19925 6.79184 9.99011 9.00098 9.99011Z" fill="#1877F2"/>
<path d="M9.00098 20.9911C12.867 20.9911 16.001 19.2003 16.001 16.9911C16.001 14.782 12.867 12.9911 9.00098 12.9911C5.13498 12.9911 2.00098 14.782 2.00098 16.9911C2.00098 19.2003 5.13498 20.9911 9.00098 20.9911Z" fill="#1877F2"/>
</svg>
