<svg width="24" height="24" viewBox="0 0 24 24" fill="none" xmlns="http://www.w3.org/2000/svg">
<path d="M13.0642 6.685L13.8092 6.379C14.4142 6.139 15.1962 5.894 16.1192 6.049C18.0102 6.367 19.3142 7.388 20.0912 8.742C20.3912 9.264 20.1492 9.952 19.5892 10.171C19.1095 10.3587 18.6994 10.6899 18.415 11.1194C18.1306 11.549 17.9858 12.0558 18.0003 12.5708C18.0149 13.0857 18.1881 13.5836 18.4963 13.9964C18.8045 14.4092 19.2326 14.7167 19.7222 14.877C20.2402 15.047 20.5322 15.622 20.3622 16.14C19.9202 17.482 19.2842 18.721 18.5312 19.721C17.7872 20.709 16.8792 21.529 15.8682 21.93C15.2082 22.19 14.5002 22.093 13.8232 21.925L13.4212 21.818L12.8242 21.645C12.5532 21.566 12.2742 21.498 12.0002 21.498C11.7252 21.498 11.4472 21.566 11.1762 21.645L10.5792 21.818L10.1772 21.925C9.50021 22.093 8.7912 22.191 8.13221 21.93C6.85921 21.426 5.73621 20.25 4.88721 18.863C3.96807 17.3356 3.36166 15.6408 3.1032 13.877C2.8762 12.323 2.9992 10.578 3.7182 9.102C4.4582 7.581 5.81421 6.397 7.88121 6.049C8.72121 5.908 9.4432 6.097 10.0212 6.314L10.3522 6.444L10.9362 6.685C11.3362 6.842 11.6512 6.934 12.0002 6.934C12.3482 6.934 12.6642 6.842 13.0642 6.685ZM11.7682 2.768C12.7442 1.791 14.2432 1.707 14.5962 2.061C14.9502 2.414 14.8662 3.913 13.8892 4.889C12.9132 5.865 11.4142 5.949 11.0612 5.596C10.7072 5.243 10.7912 3.744 11.7682 2.768Z" fill="#1877F2"/>
</svg>
