<svg width="106" height="21" viewBox="0 0 106 21" fill="none" xmlns="http://www.w3.org/2000/svg">
<path d="M10.872 0.399999C11.1893 0.399999 11.348 1.23067 11.348 2.892C11.348 4.53467 11.1893 5.356 10.872 5.356H5.748V8.548H9.164C9.48133 8.548 9.64 9.276 9.64 10.732C9.64 12.1693 9.49067 12.888 9.192 12.888H5.748V19.636C5.748 19.8973 5.39333 20.0653 4.684 20.14C3.99333 20.2333 3.41467 20.28 2.948 20.28L1.632 20.224C0.717333 20.112 0.26 19.9253 0.26 19.664V1.128C0.26 0.829332 0.316 0.633332 0.428 0.539999C0.558667 0.446665 0.745333 0.399999 0.988 0.399999H10.872ZM18.591 19.832C18.591 19.9813 17.7324 20.056 16.015 20.056C14.3164 20.056 13.467 19.9907 13.467 19.86V6.112C13.467 5.98133 14.3164 5.916 16.015 5.916C17.7324 5.916 18.591 5.972 18.591 6.084V19.832ZM18.591 4.432C18.591 4.56267 17.7324 4.628 16.015 4.628C14.3164 4.628 13.467 4.572 13.467 4.46V0.427998C13.467 0.241332 14.3164 0.147999 16.015 0.147999C17.7324 0.147999 18.591 0.203999 18.591 0.316V4.432ZM26.9753 19.832C26.9753 19.9627 26.3033 20.028 24.9593 20.028C23.0926 19.972 22.1593 19.8693 22.1593 19.72V10.648H21.4313C20.9459 10.648 20.6286 10.2373 20.4793 9.416C20.4419 9.17333 20.4233 8.93067 20.4233 8.688C20.4233 8.10933 20.5353 7.53067 20.7593 6.952C21.0953 6.13067 21.6179 5.72 22.3273 5.72C23.0366 5.72 23.6713 5.888 24.2313 6.224C24.7913 6.56 25.1646 6.896 25.3513 7.232C26.5273 6.224 27.9273 5.72 29.5513 5.72C31.1753 5.72 32.3513 6.15867 33.0793 7.036C33.8073 7.91333 34.1713 9.35067 34.1713 11.348V19.748C34.1713 19.972 33.3686 20.084 31.7633 20.084C30.1766 20.084 29.3833 19.972 29.3833 19.748V11.656C29.3833 10.7227 29.0566 10.256 28.4033 10.256C28.2166 10.256 27.9553 10.34 27.6193 10.508C27.2833 10.6573 27.0686 10.7693 26.9753 10.844V19.832ZM43.6292 0.568C43.6292 0.287999 44.3665 0.147999 45.8412 0.147999C46.3452 0.147999 46.9238 0.185332 47.5772 0.259999C48.2492 0.315999 48.5852 0.399999 48.5852 0.511999V15.268H49.5652C50.0318 15.268 50.3398 15.688 50.4892 16.528C50.5265 16.7707 50.5452 17.1067 50.5452 17.536C50.5452 17.9467 50.4145 18.4507 50.1532 19.048C49.7798 19.8693 49.1825 20.28 48.3612 20.28C47.7452 20.28 47.1945 20.1587 46.7092 19.916C46.2425 19.6733 45.9252 19.4213 45.7572 19.16L45.5052 18.796C44.4785 19.7853 43.1905 20.28 41.6412 20.28C40.0918 20.28 38.7665 19.636 37.6652 18.348C36.5638 17.06 36.0132 15.268 36.0132 12.972C36.0132 10.6573 36.5918 8.87467 37.7492 7.624C38.9065 6.35467 40.3532 5.72 42.0892 5.72C42.5932 5.72 43.1065 5.776 43.6292 5.888V0.568ZM42.7052 10.2C41.6598 10.2 41.1372 11.1427 41.1372 13.028C41.1372 13.98 41.2865 14.6707 41.5852 15.1C41.8838 15.5107 42.2105 15.716 42.5652 15.716C42.9385 15.716 43.2932 15.5573 43.6292 15.24V10.48C43.3118 10.2933 43.0038 10.2 42.7052 10.2ZM64.0945 19.832C64.0945 20.056 63.3105 20.168 61.7425 20.168C59.8759 20.0933 58.9425 19.972 58.9425 19.804V9.892H57.5145C57.1412 9.892 56.9545 9.248 56.9545 7.96C56.9545 7.624 56.9825 7.21333 57.0385 6.728C57.1132 6.24267 57.2532 6 57.4585 6H58.9425V3.536C58.9425 3.16267 59.7265 2.976 61.2945 2.976C62.8812 2.976 63.6745 3.12533 63.6745 3.424V5.216L63.7025 6H66.0825C66.3999 6 66.5585 6.65333 66.5585 7.96C66.5585 9.26667 66.3999 9.92 66.0825 9.92H64.0945V19.832ZM78.5471 19.244C77.3711 19.9347 75.8591 20.28 74.0111 20.28C72.1631 20.28 70.6045 19.6547 69.3351 18.404C68.0658 17.1347 67.4311 15.3893 67.4311 13.168C67.4311 10.928 68.0378 9.12667 69.2511 7.764C70.4831 6.40133 72.0325 5.72 73.8991 5.72C75.7658 5.72 77.2031 6.196 78.2111 7.148C79.2378 8.1 79.7511 9.25733 79.7511 10.62C79.7511 13.644 78.0151 15.156 74.5431 15.156H72.6111C72.6111 15.716 72.7605 16.108 73.0591 16.332C73.3765 16.5373 73.8338 16.64 74.4311 16.64C75.7378 16.64 76.9791 16.3413 78.1551 15.744C78.1738 15.7253 78.2578 15.856 78.4071 16.136C78.8551 16.9387 79.0791 17.62 79.0791 18.18C79.0791 18.7213 78.9018 19.076 78.5471 19.244ZM75.0471 11.152C75.0471 10.368 74.6645 9.976 73.8991 9.976C73.5445 9.976 73.2365 10.088 72.9751 10.312C72.7325 10.5173 72.6111 10.8253 72.6111 11.236V12.104H74.1231C74.7391 12.104 75.0471 11.7867 75.0471 11.152ZM86.1723 13.056C86.1723 14.8853 86.863 15.8 88.2443 15.8C89.1403 15.8 89.887 15.6227 90.4843 15.268C90.7643 15.268 90.9883 15.7533 91.1563 16.724C91.343 17.676 91.4363 18.3293 91.4363 18.684C91.4363 19.02 91.3896 19.244 91.2963 19.356C90.307 19.972 88.9536 20.28 87.2363 20.28C85.519 20.28 84.0536 19.6453 82.8403 18.376C81.6456 17.088 81.0483 15.3427 81.0483 13.14C81.0483 10.9187 81.6363 9.12667 82.8123 7.764C84.007 6.40133 85.5843 5.72 87.5443 5.72C89.523 5.72 90.895 6.196 91.6603 7.148C91.8283 7.35333 91.9123 7.66133 91.9123 8.072C91.9123 8.464 91.8376 8.94933 91.6883 9.528C91.3523 10.7227 90.9136 11.4133 90.3723 11.6C90.2976 11.6187 90.1856 11.628 90.0363 11.628C89.9056 11.628 89.7376 11.516 89.5323 11.292C88.8043 10.564 88.2163 10.2 87.7683 10.2C87.339 10.2 86.9656 10.424 86.6483 10.872C86.331 11.32 86.1723 12.048 86.1723 13.056ZM98.1235 19.804C98.1235 19.972 97.3395 20.056 95.7715 20.056C94.2222 20.056 93.4475 19.9253 93.4475 19.664V0.483999C93.4475 0.353332 93.7368 0.259999 94.3155 0.204C94.8942 0.147999 95.3795 0.119999 95.7715 0.119999C97.3395 0.119999 98.1235 0.287999 98.1235 0.623999V6.224C99.1688 5.90667 99.9622 5.748 100.504 5.748C101.922 5.748 103.042 6.13067 103.864 6.896C104.685 7.64267 105.096 9.04267 105.096 11.096V19.776C105.096 19.944 104.368 20.028 102.912 20.028C101.269 19.972 100.448 19.8787 100.448 19.748V11.516C100.448 10.6013 100.149 10.144 99.5515 10.144C99.1408 10.144 98.6648 10.34 98.1235 10.732V19.804Z" fill="white"/>
</svg>
